<mxfile host="app.diagrams.net" modified="2024-07-14T16:28:30.507Z" agent="Mozilla/5.0 (Windows NT 10.0; Win64; x64) AppleWebKit/537.36 (KHTML, like Gecko) Chrome/126.0.0.0 Safari/537.36" etag="hMQS18oNL3Hu4TmGj6bv" version="24.6.5" type="github">
  <diagram name="Page-1" id="90a13364-a465-7bf4-72fc-28e22215d7a0">
    <mxGraphModel dx="1909" dy="1096" grid="1" gridSize="10" guides="1" tooltips="1" connect="1" arrows="1" fold="1" page="1" pageScale="1.5" pageWidth="1169" pageHeight="826" background="none" math="0" shadow="0">
      <root>
        <mxCell id="0" style=";html=1;" />
        <mxCell id="1" style=";html=1;" parent="0" />
        <mxCell id="4AdBu0wVkaOf70Lx4xHf-2" value="Input" style="whiteSpace=wrap;html=1;shadow=1;fontSize=20;fillColor=#f5f5f5;strokeColor=#666666;strokeWidth=2;dashed=1;" vertex="1" parent="1">
          <mxGeometry x="120" y="390" width="273" height="60" as="geometry" />
        </mxCell>
        <mxCell id="4AdBu0wVkaOf70Lx4xHf-25" value="Output" style="whiteSpace=wrap;html=1;shadow=1;fontSize=20;fillColor=#f5f5f5;strokeColor=#666666;strokeWidth=2;dashed=1;" vertex="1" parent="1">
          <mxGeometry x="1200" y="460" width="280" height="60" as="geometry" />
        </mxCell>
        <mxCell id="4AdBu0wVkaOf70Lx4xHf-21" value="Proses Optimasi" style="whiteSpace=wrap;html=1;shadow=1;fontSize=20;fillColor=#f5f5f5;strokeColor=#666666;strokeWidth=2;dashed=1;" vertex="1" parent="1">
          <mxGeometry x="840" y="390" width="280" height="60" as="geometry" />
        </mxCell>
        <mxCell id="4AdBu0wVkaOf70Lx4xHf-11" value="" style="whiteSpace=wrap;html=1;shadow=1;fontSize=18;fillColor=#f5f5f5;strokeColor=#666666;" vertex="1" parent="1">
          <mxGeometry x="120" y="450" width="273" height="465" as="geometry" />
        </mxCell>
        <mxCell id="3a17f1ce550125da-1" value="Proses Peramalan" style="whiteSpace=wrap;html=1;shadow=1;fontSize=20;fillColor=#f5f5f5;strokeColor=#666666;strokeWidth=2;dashed=1;" parent="1" vertex="1">
          <mxGeometry x="480" y="460" width="280" height="60" as="geometry" />
        </mxCell>
        <mxCell id="3a17f1ce550125da-8" value="Input Data Penjualan" style="whiteSpace=wrap;html=1;shadow=0;fontSize=18;fillColor=#f5f5f5;strokeColor=#666666;" parent="1" vertex="1">
          <mxGeometry x="156.5" y="498" width="200" height="74" as="geometry" />
        </mxCell>
        <mxCell id="3a17f1ce550125da-21" style="edgeStyle=elbowEdgeStyle;rounded=0;html=1;startArrow=none;startFill=0;jettySize=auto;orthogonalLoop=1;fontSize=18;elbow=vertical;" parent="1" source="4AdBu0wVkaOf70Lx4xHf-11" target="4AdBu0wVkaOf70Lx4xHf-4" edge="1">
          <mxGeometry relative="1" as="geometry">
            <mxPoint x="527" y="669.9090909090908" as="targetPoint" />
          </mxGeometry>
        </mxCell>
        <mxCell id="3a17f1ce550125da-9" value="Input data Keuntungan produk" style="whiteSpace=wrap;html=1;shadow=0;fontSize=18;fillColor=#f5f5f5;strokeColor=#666666;" parent="1" vertex="1">
          <mxGeometry x="156.5" y="625" width="200" height="90" as="geometry" />
        </mxCell>
        <mxCell id="4AdBu0wVkaOf70Lx4xHf-20" style="edgeStyle=orthogonalEdgeStyle;rounded=0;orthogonalLoop=1;jettySize=auto;html=1;" edge="1" parent="1" source="4AdBu0wVkaOf70Lx4xHf-4" target="4AdBu0wVkaOf70Lx4xHf-15">
          <mxGeometry relative="1" as="geometry">
            <Array as="points">
              <mxPoint x="890" y="675" />
              <mxPoint x="890" y="675" />
            </Array>
          </mxGeometry>
        </mxCell>
        <mxCell id="4AdBu0wVkaOf70Lx4xHf-4" value="" style="whiteSpace=wrap;html=1;shadow=1;fontSize=18;fillColor=#f5f5f5;strokeColor=#666666;" vertex="1" parent="1">
          <mxGeometry x="480" y="520" width="280" height="310" as="geometry" />
        </mxCell>
        <mxCell id="4AdBu0wVkaOf70Lx4xHf-9" value="&lt;div&gt;&lt;span style=&quot;background-color: initial;&quot;&gt;Menentukan Periode Peramalan&lt;/span&gt;&lt;/div&gt;" style="whiteSpace=wrap;html=1;shadow=0;fontSize=18;fillColor=#f5f5f5;strokeColor=#666666;" vertex="1" parent="1">
          <mxGeometry x="538.5" y="560" width="163" height="80" as="geometry" />
        </mxCell>
        <mxCell id="4AdBu0wVkaOf70Lx4xHf-10" value="&lt;div&gt;&lt;span style=&quot;background-color: initial;&quot;&gt;Perhitungan Peramalan Regresi Linear&lt;/span&gt;&lt;/div&gt;" style="whiteSpace=wrap;html=1;shadow=0;fontSize=18;fillColor=#f5f5f5;strokeColor=#666666;" vertex="1" parent="1">
          <mxGeometry x="538.5" y="680" width="163" height="90" as="geometry" />
        </mxCell>
        <mxCell id="4AdBu0wVkaOf70Lx4xHf-13" value="Input Data Kapasitas Maksimal Produksi" style="whiteSpace=wrap;html=1;shadow=0;fontSize=18;fillColor=#f5f5f5;strokeColor=#666666;" vertex="1" parent="1">
          <mxGeometry x="156.5" y="770" width="200" height="90" as="geometry" />
        </mxCell>
        <mxCell id="4AdBu0wVkaOf70Lx4xHf-27" style="edgeStyle=orthogonalEdgeStyle;rounded=0;orthogonalLoop=1;jettySize=auto;html=1;" edge="1" parent="1" source="4AdBu0wVkaOf70Lx4xHf-15" target="4AdBu0wVkaOf70Lx4xHf-22">
          <mxGeometry relative="1" as="geometry">
            <Array as="points">
              <mxPoint x="1260" y="675" />
              <mxPoint x="1260" y="675" />
            </Array>
          </mxGeometry>
        </mxCell>
        <mxCell id="4AdBu0wVkaOf70Lx4xHf-15" value="" style="whiteSpace=wrap;html=1;shadow=1;fontSize=18;fillColor=#f5f5f5;strokeColor=#666666;" vertex="1" parent="1">
          <mxGeometry x="840" y="450" width="280" height="460" as="geometry" />
        </mxCell>
        <mxCell id="4AdBu0wVkaOf70Lx4xHf-16" value="&lt;div&gt;&lt;span style=&quot;background-color: initial;&quot;&gt;Pemodelan matematis&lt;/span&gt;&lt;/div&gt;" style="whiteSpace=wrap;html=1;shadow=0;fontSize=18;fillColor=#f5f5f5;strokeColor=#666666;" vertex="1" parent="1">
          <mxGeometry x="898.5" y="498" width="163" height="80" as="geometry" />
        </mxCell>
        <mxCell id="4AdBu0wVkaOf70Lx4xHf-17" value="&lt;div&gt;&lt;span style=&quot;background-color: initial;&quot;&gt;Pemberian bobot prioritas&lt;/span&gt;&lt;br&gt;&lt;/div&gt;" style="whiteSpace=wrap;html=1;shadow=0;fontSize=18;fillColor=#f5f5f5;strokeColor=#666666;" vertex="1" parent="1">
          <mxGeometry x="898.5" y="625" width="163" height="90" as="geometry" />
        </mxCell>
        <mxCell id="4AdBu0wVkaOf70Lx4xHf-22" value="" style="whiteSpace=wrap;html=1;shadow=1;fontSize=18;fillColor=#f5f5f5;strokeColor=#666666;" vertex="1" parent="1">
          <mxGeometry x="1200" y="520" width="280" height="310" as="geometry" />
        </mxCell>
        <mxCell id="4AdBu0wVkaOf70Lx4xHf-23" value="Hasil Peramalan" style="whiteSpace=wrap;html=1;shadow=0;fontSize=18;fillColor=#f5f5f5;strokeColor=#666666;" vertex="1" parent="1">
          <mxGeometry x="1240" y="563" width="200" height="74" as="geometry" />
        </mxCell>
        <mxCell id="4AdBu0wVkaOf70Lx4xHf-24" value="Hasil Optimasi" style="whiteSpace=wrap;html=1;shadow=0;fontSize=18;fillColor=#f5f5f5;strokeColor=#666666;" vertex="1" parent="1">
          <mxGeometry x="1240" y="680" width="200" height="90" as="geometry" />
        </mxCell>
        <mxCell id="4AdBu0wVkaOf70Lx4xHf-28" value="Penyelesaian Model Optimasi Goal Programming" style="whiteSpace=wrap;html=1;shadow=0;fontSize=18;fillColor=#f5f5f5;strokeColor=#666666;" vertex="1" parent="1">
          <mxGeometry x="880" y="760" width="200" height="90" as="geometry" />
        </mxCell>
      </root>
    </mxGraphModel>
  </diagram>
</mxfile>
